<svg xmlns:mydata="http://www.w3.org/2000/svg" mydata:contrastcolor="ffffff" mydata:template="SingleColorHex2" mydata:presentation="2.5" mydata:layouttype="undefined" mydata:specialfontid="undefined" mydata:id1="831" mydata:id2="243" mydata:companyname="Good luck furniture" mydata:companytagline="" version="1.1" xmlns="http://www.w3.org/2000/svg" xmlns:xlink="http://www.w3.org/1999/xlink" viewBox="0 0 550 470"><g fill="none" fill-rule="nonzero" stroke="none" stroke-width="1" stroke-linecap="butt" stroke-linejoin="miter" stroke-miterlimit="10" stroke-dasharray="" stroke-dashoffset="0" font-family="none" font-weight="none" font-size="none" text-anchor="none" style="mix-blend-mode: normal"><g data-paper-data="{&quot;isGlobalGroup&quot;:true,&quot;bounds&quot;:{&quot;x&quot;:91.61548077273764,&quot;y&quot;:168.45800926347766,&quot;width&quot;:366.7690384545248,&quot;height&quot;:133.08398147304467}}"><g data-paper-data="{&quot;isSecondaryText&quot;:true}" fill="#101820"><path d="M115.67936,299.40005v-12.53035h-1.92775v14.351h9.83151v-1.82065z" data-paper-data="{&quot;glyphName&quot;:&quot;L&quot;,&quot;glyphIndex&quot;:0,&quot;firstGlyphOfWord&quot;:true,&quot;word&quot;:1}"></path><path d="M149.18056,286.82686h-1.92775v8.65344c0,2.91304 -1.84207,4.02685 -3.98401,4.04827c-2.14194,0.02142 -3.98401,-1.13523 -3.98401,-4.04827v-8.65344h-1.92775v8.7177c0,3.7484 2.54891,5.95459 5.91176,5.95459c3.36285,0 5.91176,-2.2062 5.91176,-5.95459z" data-paper-data="{&quot;glyphName&quot;:&quot;U&quot;,&quot;glyphIndex&quot;:1,&quot;word&quot;:1}"></path><path d="M170.4087,286.54841c-4.32672,0 -7.56105,3.38427 -7.56105,7.49679c0,4.11253 3.23433,7.49679 7.56105,7.49679c2.07768,0 3.72698,-0.72826 4.73369,-1.62787v-1.92775c-1.00671,0.7711 -2.54891,1.67071 -4.73369,1.67071c-3.21291,0 -5.59046,-2.39897 -5.59046,-5.61188c0,-3.21291 2.37755,-5.61188 5.59046,-5.61188c2.18478,0 3.34143,1.11381 4.3053,1.77781v-2.12052c-1.00671,-0.89962 -2.22762,-1.5422 -4.3053,-1.5422z" data-paper-data="{&quot;glyphName&quot;:&quot;C&quot;,&quot;glyphIndex&quot;:2,&quot;word&quot;:1}"></path><path d="M192.85701,295.03049l5.37627,6.19021h2.67743l-6.66144,-7.73241l6.01885,-6.6186h-2.69885l-6.55434,7.53963v-7.53963h-1.92775v14.351h1.92775v-4.17678z" data-paper-data="{&quot;glyphName&quot;:&quot;K&quot;,&quot;glyphIndex&quot;:3,&quot;lastGlyphOfWord&quot;:true,&quot;word&quot;:1}"></path><path d="M229.49673,288.69035h7.45395v-1.82065h-9.3817v14.351h1.92775v-5.91176h6.16879v-1.82065h-6.16879z" data-paper-data="{&quot;glyphName&quot;:&quot;F&quot;,&quot;glyphIndex&quot;:4,&quot;firstGlyphOfWord&quot;:true,&quot;word&quot;:2}"></path><path d="M263.03686,286.82686h-1.92775v8.65344c0,2.91304 -1.84207,4.02685 -3.98401,4.04827c-2.14194,0.02142 -3.98401,-1.13523 -3.98401,-4.04827v-8.65344h-1.92775v8.7177c0,3.7484 2.54891,5.95459 5.91176,5.95459c3.36285,0 5.91176,-2.2062 5.91176,-5.95459z" data-paper-data="{&quot;glyphName&quot;:&quot;U&quot;,&quot;glyphIndex&quot;:5,&quot;word&quot;:2}"></path><path d="M287.02045,301.2207h2.95588l-7.00415,-5.97601c0.27845,0.02142 0.51407,0.02142 0.70684,0.02142c2.48465,0 5.09782,-1.41368 5.09782,-4.09111c0,-2.95588 -2.52749,-4.3053 -4.99072,-4.3053h-5.50479v14.351h1.92775v-6.04027zM280.20908,288.69035h3.25575c1.84207,0 3.34143,0.8782 3.34143,2.48465c0,1.5422 -1.24233,2.52749 -3.40569,2.52749c-1.09239,0 -2.24904,-0.14994 -3.19149,-0.40697z" data-paper-data="{&quot;glyphName&quot;:&quot;R&quot;,&quot;glyphIndex&quot;:6,&quot;word&quot;:2}"></path><path d="M314.71699,301.2207v-14.351h-1.92775v10.38841l-9.2746,-10.38841h-0.7711v14.351h1.92775v-10.2599l9.2746,10.2599z" data-paper-data="{&quot;glyphName&quot;:&quot;N&quot;,&quot;glyphIndex&quot;:7,&quot;word&quot;:2}"></path><path d="M333.879,288.69035h2.42039v-1.82065h-6.76853v1.82065h2.42039v10.7097h-2.42039v1.82065h6.76853v-1.82065h-2.42039z" data-paper-data="{&quot;glyphName&quot;:&quot;I&quot;,&quot;glyphIndex&quot;:8,&quot;word&quot;:2}"></path><path d="M360.69277,288.69035v-1.82065h-11.82351v1.82065h4.94788v12.46609h1.92775v-12.46609z" data-paper-data="{&quot;glyphName&quot;:&quot;T&quot;,&quot;glyphIndex&quot;:9,&quot;word&quot;:2}"></path><path d="M385.53027,286.82686h-1.92775v8.65344c0,2.91304 -1.84207,4.02685 -3.98401,4.04827c-2.14194,0.02142 -3.98401,-1.13523 -3.98401,-4.04827v-8.65344h-1.92775v8.7177c0,3.7484 2.54891,5.95459 5.91176,5.95459c3.36285,0 5.91176,-2.2062 5.91176,-5.95459z" data-paper-data="{&quot;glyphName&quot;:&quot;U&quot;,&quot;glyphIndex&quot;:10,&quot;word&quot;:2}"></path><path d="M409.51386,301.2207h2.95588l-7.00415,-5.97601c0.27845,0.02142 0.51407,0.02142 0.70684,0.02142c2.48465,0 5.09782,-1.41368 5.09782,-4.09111c0,-2.95588 -2.52749,-4.3053 -4.99072,-4.3053h-5.50479v14.351h1.92775v-6.04027zM402.70249,288.69035h3.25575c1.84207,0 3.34143,0.8782 3.34143,2.48465c0,1.5422 -1.24233,2.52749 -3.40569,2.52749c-1.09239,0 -2.24904,-0.14994 -3.19149,-0.40697z" data-paper-data="{&quot;glyphName&quot;:&quot;R&quot;,&quot;glyphIndex&quot;:11,&quot;word&quot;:2}"></path><path d="M426.84707,288.69035h7.90376v-1.82065h-9.83151v14.351h9.83151v-1.82065h-7.90376v-4.62659h6.98273v-1.82065h-6.98273z" data-paper-data="{&quot;glyphName&quot;:&quot;E&quot;,&quot;glyphIndex&quot;:12,&quot;lastGlyphOfWord&quot;:true,&quot;word&quot;:2}"></path></g><g data-paper-data="{&quot;isPrimaryText&quot;:true}" fill="#101820"><path d="M157.54673,229.13666l16.28277,-0.60414v28.17937c-8.33896,7.61954 -19.17154,12.31826 -31.30671,12.31826c-25.02922,0 -42.23669,-22.236 -42.23669,-49.66512c0,-27.42912 17.20747,-49.66512 42.23669,-49.66512c21.7644,0 35.45061,17.33754 42.01846,37.09288l6.22201,-3.68278c-6.78423,-20.14063 -25.81151,-34.65166 -48.24047,-34.65166c-28.11526,0 -50.90731,22.79144 -50.90731,50.90669c0,28.11526 22.79205,50.90669 50.90731,50.90669c11.81399,0 22.67308,-4.0391 31.30671,-10.79436v9.01338h8.14416v-40.26091l8.7896,-0.32611v-1.21752h-33.21653z" data-paper-data="{&quot;glyphName&quot;:&quot;G&quot;,&quot;glyphIndex&quot;:0,&quot;firstGlyphOfWord&quot;:true,&quot;word&quot;:1}"></path><path d="M319.78511,168.45801c-13.08453,0 -25.01134,4.94037 -34.02903,13.05186c-9.01769,-8.11148 -20.94512,-13.05186 -34.02903,-13.05186c-28.11464,0 -50.90731,22.79144 -50.90731,50.90669c0,28.11526 22.79205,50.90669 50.90731,50.90669c13.08392,0 25.01134,-4.94037 34.02903,-13.05186c9.01769,8.11148 20.94512,13.05186 34.02903,13.05186c28.11464,0 50.90669,-22.79144 50.90669,-50.90669c0,-28.11526 -22.79144,-50.90669 -50.90669,-50.90669zM251.72705,269.03044c-25.02922,0 -42.2373,-22.236 -42.2373,-49.66512c0,-27.42912 17.20809,-49.66512 42.2373,-49.66512c12.70232,0 23.38325,5.73438 30.82956,14.96045c-8.48075,9.09352 -13.67819,21.2891 -13.67819,34.70468c0,13.41557 5.19744,25.61116 13.67881,34.70468c-7.44693,9.22606 -18.12786,14.96045 -30.83018,14.96045zM285.75608,189.15531c5.24429,8.37102 8.20765,18.84111 8.20765,30.21001c0,11.3689 -2.96398,21.83899 -8.20766,30.21001c-5.24429,-8.37102 -8.20765,-18.84111 -8.20765,-30.21001c0,-11.36952 2.96336,-21.83899 8.20765,-30.21001zM319.7851,269.03045c-12.70232,0 -23.38325,-5.73438 -30.83018,-14.96045c8.48075,-9.09352 13.67881,-21.2891 13.67881,-34.70468c0,-13.41557 -5.19806,-25.61116 -13.67881,-34.70468c7.44693,-9.22606 18.12786,-14.96045 30.83018,-14.96045c25.02922,0 42.23669,22.236 42.23669,49.66512c0,27.42912 -17.20747,49.66512 -42.23669,49.66512z" data-paper-data="{&quot;glyphName&quot;:&quot;&quot;,&quot;glyphIndex&quot;:1,&quot;word&quot;:1}"></path><path d="M409.25819,170.23808l-21.89571,0.00062v98.25205h21.89571v0.00062c27.13199,0 49.12633,-21.99496 49.12633,-49.12633c0,-27.13199 -21.99496,-49.12695 -49.12633,-49.12695zM409.25819,267.29295h-16.83327v-95.85645h16.83327c24.15383,0 43.7347,21.45863 43.7347,47.92853c-0.00062,26.4699 -19.58149,47.92792 -43.7347,47.92792z" data-paper-data="{&quot;glyphName&quot;:&quot;D&quot;,&quot;glyphIndex&quot;:2,&quot;lastGlyphOfWord&quot;:true,&quot;fontStyleEffect&quot;:true,&quot;word&quot;:1}"></path></g></g></g></svg>